<?xml version="1.0" encoding="UTF-8" standalone="no"?>
<svg
   xmlns:dc="http://purl.org/dc/elements/1.1/"
   xmlns:cc="http://creativecommons.org/ns#"
   xmlns:rdf="http://www.w3.org/1999/02/22-rdf-syntax-ns#"
   xmlns:svg="http://www.w3.org/2000/svg"
   xmlns="http://www.w3.org/2000/svg"
   xmlns:sodipodi="http://sodipodi.sourceforge.net/DTD/sodipodi-0.dtd"
   xmlns:inkscape="http://www.inkscape.org/namespaces/inkscape"
   version="1.1"
   width="623.71338"
   height="519.56726"
   id="svg861"
   sodipodi:docname="logo.svg"
   inkscape:version="1.0.2 (e86c8708, 2021-01-15)"
   inkscape:export-filename="/Users/rolando/dev/schematra/public/logo-sm.png"
   inkscape:export-xdpi="18.476915"
   inkscape:export-ydpi="18.476915">
  <metadata
     id="metadata867">
    <rdf:RDF>
      <cc:Work
         rdf:about="">
        <dc:format>image/svg+xml</dc:format>
        <dc:type
           rdf:resource="http://purl.org/dc/dcmitype/StillImage" />
        <dc:title />
      </cc:Work>
    </rdf:RDF>
  </metadata>
  <defs
     id="defs865" />
  <sodipodi:namedview
     pagecolor="#ffffff"
     bordercolor="#666666"
     borderopacity="1"
     objecttolerance="10"
     gridtolerance="10"
     guidetolerance="10"
     inkscape:pageopacity="0"
     inkscape:pageshadow="2"
     inkscape:window-width="1670"
     inkscape:window-height="921"
     id="namedview863"
     showgrid="false"
     inkscape:zoom="0.76490386"
     inkscape:cx="470.90162"
     inkscape:cy="222.56624"
     inkscape:window-x="112"
     inkscape:window-y="25"
     inkscape:window-maximized="0"
     inkscape:current-layer="svg861"
     fit-margin-top="0"
     fit-margin-left="0"
     fit-margin-right="0"
     fit-margin-bottom="0"
     inkscape:document-rotation="0" />
  <path
     d="m 321.59595,0.03146863 c 7.6,-0.36 14.71,2.38999997 20.54,7.15999997 22.13,22.0100004 37.81,59.7500004 49.53,88.3900004 1.16,3.42 1.16,3.42 2.54,4.670001 7.81,-0.16 15.62,-1.160001 23.37,-2.000001 43.4,-4.7 43.4,-4.7 56.19,1.810001 3.38,3.04 5.1,5.38 5.94,9.88 -2.33,15.42 -18.83,28.77 -30.56,37.61 -30.7,21.7 -30.7,21.7 -38.94,21.7 0.31,4.59 1.4,8.15 3.25,12.37 5.35,12.38 8.38,25.4 10.75,38.63 3.28,1.06 6.47,1.14 9.89,1.24 27.42,0.87 51.6,11.4 70.77,31.12 5.35,6.04 10.26,12.43 10.62,20.76 -0.28,1.88 -0.28,1.88 -2.09,4.38 -3.71,2.54 -6.09,2.69 -10.58,2.89 -1.33,0.07 -2.66,0.14 -3.99,0.2 -0.71,0.04 -1.41,0.07 -2.13,0.11 -14.42,0.74 -28.34,2.34 -42.49,5.3 -1.22,0.25 -2.43,0.5 -3.68,0.75 -6.31,1.29 -12.61,2.62 -18.91,3.98 -1.02,0.22 -2.04,0.44 -3.09,0.67 -2.27,0.38 -2.27,0.38 -3.32,1.6 -0.41,4.05 -0.41,4.05 0,8 3.03,2.73 6.12,3.9 9.97,5.16 1.15,0.38 2.3,0.76 3.48,1.16 2.41,0.79 4.82,1.57 7.24,2.36 1.14,0.39 2.29,0.77 3.47,1.16 1.05,0.34 2.1,0.69 3.18,1.04 2.62,1.1 4,1.83 5.66,4.12 0.53,4.59 0.5,6.96 -1.5,11.12 -7.08,8.15 -15.34,11.07 -25.5,13.88 -0.66,0 -1.32,0 -2,0 1.48,4.93 3.57,9.27 5.94,13.81 6.83,13.39 11.34,28.14 6.56,43.06 -3.26,7.71 -8.72,14.11 -16.47,17.49 -3.34,1.05 -6.54,1.39 -10.03,1.64 1.63,5.42 3.61,10.4 6.21,15.43 5.47,10.63 9.42,21.62 13.16,32.94 0.38,1.14 0.38,1.14 0.77,2.31 1.68,5.09 3.3,10.19 4.86,15.32 0.21,0.7 0.43,1.39 0.65,2.11 0.6,2.01 1.19,4.03 1.76,6.05 0.34,1.15 0.67,2.31 1.01,3.49 0.65,3.78 0.44,6.62 -0.42,10.35 -8.22,8.22 -25.25,6.93 -36.13,7.19 -17.07,-0.23 -32.8,-3.55 -48.87,-9.19 -0.04,0.76 -0.08,1.52 -0.11,2.3 -0.07,0.99 -0.14,1.99 -0.2,3.01 -0.06,0.99 -0.12,1.97 -0.18,2.99 -0.51,2.7 -0.51,2.7 -1.62,4.43 -5.11,3.43 -11.1,3.63 -17.08,3.58 -0.77,0 -1.55,-0.01 -2.34,-0.01 -32.24,-0.63 -62.56,-12.63 -85.47,-35.3 -4.39,-4.63 -4.39,-4.63 -6.28,-6.74 -1.64,-1.45 -1.64,-1.45 -3.75,-1.34 -3.02,1.65 -3.63,3.9 -4.97,7.02 -0.77,1.75 -0.77,1.75 -1.55,3.54 -1.59,3.85 -3.14,7.7 -4.59,11.59 -0.86,1.93 -0.86,1.93 -2.86,3.93 -5.84,0.69 -9.52,-0.91 -14.31,-4 -0.98,-0.61 -0.98,-0.61 -1.98,-1.24 -5.57,-3.53 -10.77,-7.39 -15.71,-11.76 -0.68,-0.59 -1.37,-1.18 -2.07,-1.79 -16.68,-15.4 -23.09,-37.27 -24.93,-59.21 -0.96,0.02 -1.92,0.04 -2.92,0.06 -3.63,0.08 -7.26,0.12 -10.89,0.16 -1.56,0.02 -3.12,0.05 -4.68,0.08 -17.9,0.39 -33.29,-3.77 -46.63,-16.36 -4.889995,-5.04 -6.879995,-8.99 -6.879995,-15.94 1.97,-4.04 4.569995,-5.35 8.499995,-7.13 18.19,-8.66 28.56,-28.11 35.25,-46.21 4.21,-12.35 7.53,-25 10.99,-37.57 1.68,-6.06 3.42,-12.1 5.21,-18.12 0.35,-1.18 0.35,-1.18 0.71,-2.38 0.89,-2.98 1.78,-5.96 2.68,-8.93 0.6,-2.01 1.2,-4.01 1.8,-6.02 0.33,-1.12 0.67,-2.24 1.02,-3.39 0.88,-3.41 1.41,-6.76 1.84,-10.25 -0.73,-0.02 -1.47,-0.03 -2.23,-0.05 -28.05,-0.62 -28.05,-0.62 -40.77,-3.95 -1.02,-0.27 -2.04,-0.53 -3.09,-0.81 -6.88,-2.13 -12.23,-5.67 -16.91,-11.19 -2.559995,-5.21 -3.039995,-10.41 -1.419995,-16.01 8.859995,-19.98 33.249995,-31.72 51.079995,-42.53 2.21,-1.26 2.21,-1.26 3.34,-2.46 0.23,-5.03 -0.32,-9.75 -1.24,-14.67 -0.27,-1.48 -0.53,-2.95 -0.79,-4.43 -0.14,-0.76 -0.28,-1.52 -0.42,-2.3 -10.28,-56.880001 -10.28,-56.880001 2.45,-75.600001 0.56,-0.87 1.11,-1.73 1.69,-2.63 9.82,-10.08 23.31,-15 36.31,-19.58 13.33,-4.71 25.43,-9.48 37,-17.79 2.38,-1.64 4.78,-3.26 7.19,-4.88 0.6,-0.4 1.21,-0.81 1.83,-1.23 25.59,-17.01 52.58,-29.2900004 83.37,-32.11000037 z"
     fill="#0c2a30"
     id="path833" />
  <path
     d="m 375.20533,158.25022 c 2.02,1.7 3.85,3.37 5.69,5.25 0.52,0.54 1.05,1.07 1.59,1.62 14.46,15.08 23.92,34.6 23.97,55.69 -0.06,1.82 -0.14,3.63 -0.25,5.44 -1.1,0.5 -2.2,0.99 -3.33,1.5 -22.06,10.08 -43.13,23.49 -55.61,44.81 -2.42,8.41 -1.97,15.18 2.13,22.88 2.66,6.65 1.28,10.54 -1.42,17.05 -2.04,4.54 -4.15,9.04 -6.29,13.53 -2.13,4.65 -3.88,9.39 -5.54,14.23 -0.28,0.77 -0.55,1.54 -0.83,2.33 -3.15,9.15 -4.48,17.93 -4.42,27.61 0,0.96 0.01,1.93 0.01,2.93 0.11,6.76 0.73,12.81 3.3,19.13 0.29,0.77 0.58,1.54 0.88,2.33 4.51,11.09 11.74,20.99 22.81,26.17 9,3.14 18.46,2.64 27.03,-1.43 2.69,-1.26 5.45,-2.17 8.28,-3.07 31,52.07 31,52.07 31,77 -22.12,6.56 -47.7,-0.03 -67.42,-10.69 -5.91,-3.34 -11.4,-7.26 -16.85,-11.31 -2.53,-1.97 -2.53,-1.97 -4.73,-3 0.31,3.63 0.62,7.25 0.94,10.88 0.13,1.51 0.13,1.51 0.26,3.07 0.55,6.35 1.15,12.7 1.8,19.05 -26.03,1.28 -50.85,-7.28 -70.44,-24.62 -1.53,-1.46 -3.05,-2.91 -4.56,-4.38 -0.92,-0.81 -0.92,-0.81 -1.85,-1.63 -7.98,-7.27 -13.68,-17.65 -18.15,-27.37 -4.05,1.35 -5.34,4.01 -7.56,7.44 -0.65,0.98 -0.65,0.98 -1.31,1.98 -4.78,7.38 -8.99,15.08 -13.14,22.83 -0.92,1.63 -1.95,3.19 -2.99,4.75 -11.16,-3.67 -19.65,-15.11 -25.08,-25.11 -4.16,-8.51 -7.04,-18 -7.05,-27.5 0,-1.06 -0.01,-2.13 -0.01,-3.23 0.01,-1.1 0.01,-2.21 0.02,-3.35 -0.01,-1.08 -0.01,-2.17 -0.02,-3.29 0.01,-6.57 0.34,-13 1.14,-19.52 -1.29,0.58 -1.29,0.58 -2.61,1.17 -17.45,7.56 -36.84,12.44 -55.39,6.12 -4.4,-1.89 -8.22,-4.36 -12,-7.29 2.39,-2.59 4.89,-4.66 7.75,-6.69 27.37,-20.38 33.89,-59.54 42.26,-90.35 7.18,-26.39 14.74,-52.11 25.83,-77.18 1.13,-2.7 2.07,-5.41 2.98,-8.18 2.53,-7.17 4.93,-12.8 11.91,-16.46 4.9,-2.13 9.93,-3.7 15.06,-5.18 3.13,-0.94 6.2,-1.99 9.27,-3.1 33.04,-11.82 67.35,-19.34 101.69,-26.2 5.88,-1.17 11.74,-2.39 17.59,-3.65 1.38,-0.3 2.75,-0.59 4.12,-0.88 2.44,-0.53 4.88,-1.06 7.32,-1.59 1.05,-0.23 2.09,-0.45 3.17,-0.68 0.89,-0.19 1.78,-0.38 2.7,-0.58 2.49,-0.3 4.01,-0.16 6.35,0.72 z"
     fill="#fbf4e3"
     id="path835" />
  <path
     d="m 332.20533,20.250219 c 1.6,1.96 2.96,3.82 4.31,5.94 0.41,0.62 0.82,1.25 1.24,1.89 6.71,10.45 12.71,21.39 18.78,32.22 1.35,2.39 2.76,4.71 4.21,7.04 1.61,3.2 1.5,3.7 0.46,6.91 -1,0.21 -2,0.42 -3.03,0.64 -11.34,2.39 -22.66,4.85 -33.97,7.36 -1.11,0.24 -2.21,0.49 -3.35,0.74 -28.39,6.45 -56.83,16.63 -83.13,29.070001 -2.39,1.13 -4.79,2.22 -7.21,3.3 -9.39,4.23 -18.22,9.16 -27.02,14.5 -2.46,1.49 -4.94,2.95 -7.42,4.41 -8.27,4.89 -16.37,9.75 -23.97,15.65 -1.9,1.33 -1.9,1.33 -3.9,1.33 -0.65,-3.69 -1.29,-7.37 -1.94,-11.06 -0.18,-1.04 -0.36,-2.08 -0.55,-3.15 -0.51,-2.93 -1.01,-5.86 -1.51,-8.79 -0.2,-1.17 -0.4,-2.33 -0.61,-3.53 -0.56,-4.97 -0.61,-9.91 -0.64,-14.91 -0.02,-1 -0.04,-1.99 -0.06,-3.02 -0.05,-8.610001 1.59,-15.790001 7.31,-22.540001 9.8,-7.35 21.86,-11.28 33.3,-15.27 9.88,-3.46 19.06,-6.72 27.7,-12.73 0.98,-0.68 1.95,-1.35 2.96,-2.05 1.6,-1.11 3.19,-2.22 4.78,-3.34 18.6,-13 70.03,-48.4500004 93.26,-30.61 z"
     fill="#257a7d"
     id="path837" />
  <path
     d="m 96.205335,88.250219 c 1.01,2.49 1.32,4.24 0.27,6.76 -2.4,4.03 -5.28,7.430001 -8.46,10.860001 -33.13,36.15 -48.75,87.74 -54.81,135.38 -0.1,0.76 -0.21,1.53 -0.31,2.31 -7.09,54.36 1.46,110.55 23.31,160.69 0.32,0.74 0.64,1.47 0.97,2.23 9.35,21.27 21.63,40.36 37.65,57.22 7.249995,7.79 7.249995,7.79 7.379995,12.55 -1.52,2.02 -2.379995,2.91 -4.909995,3.29 -13,-1.35 -21.56,-11.03 -30.46,-19.71 -1.28,-1.24 -2.59,-2.46 -3.91,-3.67 -12.28,-11.48 -21.45,-26.42 -29.72,-40.91 -0.42,-0.73 -0.85,-1.47 -1.28,-2.22 -21.32,-37.28 -29.7000003,-79.31 -31.72000034,-121.78 -0.04,-0.75 -0.07,-1.49 -0.11,-2.26 -0.17,-4.26 -0.1,-8.49 0.11,-12.74 0.05,-0.94 0.09,-1.88 0.14,-2.85 3.28000004,-61.05 22.76000034,-122.42 65.86000034,-167.15 0.74,-0.8 1.47,-1.6 2.23,-2.42 6.74,-7.120001 17.42,-18.100001 27.77,-15.580001 z"
     fill="#25797c"
     id="path839" />
  <path
     d="m 532.15064,87.465059 c 6.41,2.12 10.99,5.38 16.05,9.79 0.84,0.71 1.68,1.43 2.55,2.17 14.31,12.540001 26.02,28.360001 35.45,44.830001 0.38,0.63 0.76,1.27 1.15,1.93 37.1,62.96 45.18,140.6 27.12,210.92 -8.06,30.14 -21.51,58.24 -40.27,83.15 -0.68,0.93 -1.37,1.86 -2.09,2.83 -4.96,6.39 -10.62,12.14 -16.28,17.92 -1.17,1.2 -1.17,1.2 -2.36,2.43 -6.69,6.71 -14.18,12.74 -23.27,15.82 -3.37,-0.32 -4.57,-0.58 -7,-3 0.06,-5.62 2.79,-8.48 6.57,-12.25 1.1,-1.16 2.21,-2.31 3.31,-3.47 0.53,-0.56 1.07,-1.12 1.63,-1.7 25.47,-26.94 40.46,-66.34 49.49,-101.58 0.24,-0.93 0.48,-1.86 0.73,-2.81 4.83,-19.03 7.75,-38.55 8.27,-58.19 0.03,-0.93 0.06,-1.86 0.09,-2.81 1.67,-66.65 -14.87,-138.56 -59.4,-189.86 -4.04,-4.780001 -6.69,-7.950001 -6.69,-14.330001 3,-2 3,-2 4.95,-1.79 z"
     fill="#25797c"
     id="path841" />
  <path
     d="m 455.20533,109.25022 c 0,0.66 0,1.32 0,2 -13.46,6.62 -26.87,12.97 -41,18 -0.93,0.34 -1.86,0.67 -2.82,1.02 -26.1,9.37 -53.02,15.48 -80.07,21.4 -12.62,2.76 -25.19,5.71 -37.73,8.77 -0.85,0.2 -1.69,0.41 -2.56,0.62 -52.72,12.8 -104.82,29.58 -152.35,56.12 -13.6,7.57 -13.6,7.57 -20.47,7.07 0.09,-4.48 0.6,-7.05 3.75,-10.31 9.87,-8.99 21,-16.55 32.25,-23.69 0.62,-0.4 1.25,-0.79 1.89,-1.2 32.87,-20.7 70.76,-34.99 107.86,-46.11 2.62,-0.8 5.23,-1.63 7.84,-2.45 59.68,-18.77 120.54,-32.21 183.41,-31.24 z"
     fill="#257b7e"
     id="path843" />
  <path
     d="m 462.20533,241.25022 c 0.62,0.26 1.25,0.51 1.89,0.78 8.94606,4.25555 27.69955,17.36702 30.11,22.22 v 2 c -1.24,0.03 -2.48,0.05 -3.75,0.08 -17.73,0.52 -34.99,3.28 -52.25,7.31 -21.6,4.41 -46.63,3.28 -67,-5.39 1.41,-4.91 4.39,-7.58 8.19,-10.75 0.93,-0.78 0.93,-0.78 1.87,-1.58 23.09,-18.95 52.52,-26.5 80.94,-14.67 z"
     fill="#d4424b"
     id="path845"
     sodipodi:nodetypes="cccccccccc" />
  <path
     d="m 361.20533,318.25022 c 0.99,0.87 1.98,1.73 3,2.62 6.65,5.83 6.65,5.83 14.14,10.41 3.44,1.68 5.39,3.04 7.15,6.51 1.14,3.45 2,6.9 2.71,10.46 0.15,0.73 0.3,1.45 0.45,2.2 3.14,16 5.48,33.64 -2.26,48.74 -3.05,4.27 -6.1,7.36 -11.19,9.06 -6.37,0.54 -10.74,-0.27 -16,-4 -7.18,-6.33 -12.44,-15.84 -13.19,-25.48 -0.41,-14.04 -0.11,-26.42 5.19,-39.52 0.43,-1.08 0.43,-1.08 0.88,-2.19 2.64,-6.49 5.37,-12.86 9.12,-18.81 z"
     fill="#d4424b"
     id="path847" />
  <path
     d="m 329.20533,194.25022 c 6.97,3.42 10.57,8.96 13.23,16.06 2.49,9.55 1.33,19.24 -3.23,27.94 -3.33,5.23 -6.88,8.34 -13,10 -5.41,0.49 -9.09,-0.63 -13.31,-4.06 -5.95,-5.75 -8.78,-12.57 -8.98,-20.79 -0.1,-10.72 1.57,-17.51 8.73,-25.74 4.82,-4.35 10.38,-4.14 16.56,-3.41 z"
     fill="#0c292f"
     id="path849" />
  <path
     d="m 360.20533,281.25022 c 2.13,0.73 4.49547,1.49 6.78911,2.90457 6.30303,4.07161 7.3848,5.19957 11.71997,8.17725 1.23,0.98 2.92092,1.89818 4.11092,2.91818 10.32,8.12 22.61,13.75 34.38,19.44 1.27,0.62 1.27,0.62 2.57,1.25 5.68,2.69 11.37,4.67 17.43,6.31 -8.67,6.88 -20.22,5.5 -30.7,4.83 -14.83,-2.11 -27.8,-11.94 -37.19,-23.08 -4.52,-6.22 -9.11,-14.97 -9.11,-22.75 z"
     fill="#d6424b"
     id="path851"
     sodipodi:nodetypes="cccccccccc" />
  <path
     d="m 400.20533,341.25022 c 4.02,-0.17 6.04,0.21 9.19,2.8 10.42,11.06 18.73,25.69 19.25,41.14 -0.28,6.06 -1.97,9.45 -6.06,13.94 -4.3,2.7 -7.43,3.12 -12.38,2.12 -2.34,-1.12 -3.97,-2.34 -6,-4 0.11,-1.02 0.11,-1.02 0.22,-2.06 1.46,-15.24 0.71,-28.99 -2.22,-43.94 -0.21,-1.11 -0.43,-2.22 -0.64,-3.36 -0.44,-2.22 -0.9,-4.43 -1.36,-6.64 z"
     fill="#d5434b"
     id="path853" />
  <path
     d="m 117.20533,201.25022 c -1.48,3.45 -3.44,5.65 -6.12,8.25 -0.73,0.71 -1.45,1.41 -2.2,2.14 -0.55,0.53 -1.11,1.06 -1.68,1.61 -0.66,-0.66 -1.32,-1.32 -2,-2 1.62,-1.67 3.25,-3.34 4.88,-5 0.9,-0.93 1.8,-1.86 2.74,-2.81 2.38,-2.19 2.38,-2.19 4.38,-2.19 z"
     fill="#132428"
     id="path857" />
</svg>
